<svg width="256" height="256" viewBox="0 0 256 256" fill="none" xmlns="http://www.w3.org/2000/svg">
<g clip-path="url(#clip0_12_113)">
<path d="M12.047 192.107C14.0284 185.997 20.5826 182.652 26.6945 184.63C32.8075 186.609 36.1611 193.164 34.183 199.277L23.3536 232.696L56.8191 222.912C62.9841 221.112 69.445 224.646 71.2507 230.81C73.0545 236.976 69.5186 243.447 63.3531 245.252L29.5354 255.138C29.4426 255.165 29.3447 255.193 29.2513 255.218C25.4192 256.235 21.3898 256.262 17.5469 255.286C13.7028 254.309 10.1673 252.363 7.28567 249.638C4.40387 246.913 2.27116 243.491 1.08121 239.707C-0.108662 235.923 -0.312927 231.899 0.490307 228.014L0.808485 226.787L12.047 192.107ZM147.897 230.81C154.206 229.589 160.311 233.718 161.534 240.025C162.755 246.335 158.627 252.44 152.318 253.661C136.255 256.769 119.745 256.77 103.682 253.661C97.3729 252.44 93.2453 246.334 94.4663 240.025C95.6882 233.718 101.795 229.59 108.102 230.81C121.245 233.353 134.754 233.353 147.897 230.81ZM214.715 186.744C218.32 181.426 225.554 180.039 230.874 183.641C236.193 187.245 237.589 194.48 233.987 199.8C224.781 213.386 213.04 225.075 199.419 234.23C194.087 237.813 186.857 236.403 183.272 231.071C179.687 225.738 181.11 218.509 186.442 214.924C197.587 207.433 207.183 197.859 214.715 186.744ZM2.33119 103.679C3.55213 97.3702 9.65845 93.2434 15.9674 94.4634C22.2763 95.6843 26.4032 101.791 25.1832 108.099C22.6397 121.242 22.64 134.751 25.1832 147.893C26.4042 154.202 22.2768 160.308 15.9674 161.529C9.65821 162.749 3.55218 158.622 2.33119 152.313C-0.776833 136.251 -0.777294 119.741 2.33119 103.679ZM240.033 94.4634C246.342 93.2425 252.448 97.3699 253.669 103.679C256.777 119.741 256.777 136.251 253.669 152.313C252.448 158.622 246.342 162.75 240.033 161.529C233.725 160.306 229.596 154.201 230.817 147.893C233.36 134.75 233.36 121.242 230.817 108.099C229.597 101.791 233.725 95.6852 240.033 94.4634ZM183.636 25.1256C187.24 19.8056 194.474 18.4187 199.794 22.0234C213.381 31.2289 225.07 42.9589 234.226 56.5787C237.81 61.9109 236.397 69.1399 231.067 72.7258C225.733 76.3107 218.493 74.8889 214.908 69.5554C207.418 58.4143 197.852 48.8144 186.738 41.284C181.421 37.6783 180.032 30.4444 183.636 25.1256ZM56.5918 21.7735C61.9253 18.1889 69.1544 19.6105 72.7393 24.9438C76.3226 30.2761 74.911 37.5054 69.5803 41.0908C58.4361 48.5814 48.8287 58.144 41.2966 69.26C37.6914 74.5789 30.4575 75.9666 25.1377 72.3621C19.8191 68.7569 18.4311 61.5232 22.0355 56.2038C31.2411 42.6186 42.972 30.9281 56.5918 21.7735ZM103.682 2.33112C119.745 -0.777271 136.255 -0.77681 152.318 2.33112C158.627 3.55207 162.754 9.65791 161.534 15.9669C160.313 22.2761 154.207 26.4034 147.897 25.1824C134.755 22.6393 121.245 22.639 108.102 25.1824C101.794 26.4024 95.6872 22.2756 94.4663 15.9669C93.2462 9.65816 97.3731 3.55202 103.682 2.33112Z" fill="#6366F1"/>
<path d="M128.112 174.541C134.539 174.541 139.748 179.75 139.748 186.176C139.746 192.601 134.537 197.812 128.112 197.812H127.998C121.574 197.812 116.365 192.601 116.362 186.176C116.362 179.75 121.572 174.541 127.998 174.541H128.112ZM103.487 64.5454C112.962 58.9779 124.099 56.9389 134.93 58.7957C145.762 60.6536 155.59 66.2859 162.668 74.6927C169.745 83.0984 173.625 93.7383 173.611 104.726L173.464 107.987C171.98 123.981 159.817 134.694 150.975 140.588C145.908 143.965 140.921 146.444 137.248 148.076C135.395 148.899 133.827 149.522 132.703 149.951C132.141 150.165 131.683 150.333 131.351 150.451C131.186 150.509 131.055 150.563 130.953 150.598C130.903 150.616 130.862 150.632 130.828 150.644C130.813 150.649 130.794 150.651 130.782 150.655L130.76 150.667H130.748C124.652 152.699 118.054 149.4 116.021 143.303C113.995 137.215 117.281 130.628 123.362 128.588V128.599L123.385 128.588C123.416 128.577 123.474 128.56 123.555 128.531C123.734 128.468 124.03 128.361 124.419 128.213C125.203 127.914 126.375 127.446 127.794 126.815C130.666 125.539 134.409 123.663 138.066 121.225C146.089 115.877 150.337 110.183 150.339 104.726V104.703C150.347 99.2077 148.412 93.8848 144.873 89.6807C141.334 85.4763 136.415 82.6556 130.998 81.7265C125.582 80.7982 120.009 81.8172 115.271 84.6014C110.534 87.3853 106.937 91.7592 105.112 96.9418C102.98 103.004 96.334 106.199 90.2717 104.066C84.2104 101.934 81.0272 95.2876 83.1581 89.2262C86.8058 78.8574 94.0108 70.1147 103.487 64.5454Z" fill="#6366F1"/>
</g>
<defs>
<clipPath id="clip0_12_113">
<rect width="256" height="256" fill="white"/>
</clipPath>
</defs>
</svg>
