<svg width="128" height="128" viewBox="0 0 128 128" fill="none" xmlns="http://www.w3.org/2000/svg">
<g clip-path="url(#clip0_12_113)">
<path d="M6.02348 96.0535C7.01421 92.9983 10.2913 91.3259 13.3473 92.315C16.4038 93.3047 18.0805 96.582 17.0915 99.6385L11.6768 116.348L28.4095 111.456C31.4921 110.556 34.7225 112.323 35.6254 115.405C36.5272 118.488 34.7593 121.723 31.6765 122.626L14.7677 127.569C14.7213 127.583 14.6724 127.596 14.6256 127.609C12.7096 128.118 10.6949 128.131 8.77345 127.643C6.85139 127.154 5.08365 126.182 3.64283 124.819C2.20194 123.456 1.13558 121.745 0.540604 119.854C-0.054331 117.962 -0.156463 115.949 0.245154 114.007L0.404242 113.394L6.02348 96.0535ZM73.9487 115.405C77.103 114.794 80.1556 116.859 80.7668 120.013C81.3773 123.167 79.3136 126.22 76.1589 126.831C68.1274 128.385 59.8726 128.385 51.841 126.831C48.6864 126.22 46.6226 123.167 47.2332 120.013C47.8441 116.859 50.8973 114.795 54.0512 115.405C60.6227 116.677 67.3772 116.677 73.9487 115.405ZM107.357 93.3718C109.16 90.7131 112.777 90.0197 115.437 91.8207C118.096 93.6226 118.794 97.24 116.994 99.8999C112.391 106.693 106.52 112.537 99.7097 117.115C97.0433 118.907 93.4286 118.201 91.636 115.536C89.8436 112.869 90.5549 109.255 93.2212 107.462C98.7933 103.717 103.591 98.9297 107.357 93.3718ZM1.1656 51.8395C1.77607 48.6851 4.82923 46.6217 7.98369 47.2317C11.1381 47.8422 13.2016 50.8953 12.5916 54.0496C11.3199 60.6208 11.32 67.3753 12.5916 73.9465C13.2021 77.1011 11.1384 80.1538 7.98369 80.7643C4.8291 81.3746 1.77609 79.3111 1.1656 76.1566C-0.388417 68.1255 -0.388647 59.8706 1.1656 51.8395ZM120.016 47.2317C123.171 46.6212 126.224 48.6849 126.834 51.8395C128.389 59.8707 128.388 68.1253 126.834 76.1566C126.224 79.3112 123.171 81.3748 120.016 80.7643C116.862 80.1532 114.798 77.1006 115.408 73.9465C116.68 67.3752 116.68 60.6209 115.408 54.0496C114.799 50.8957 116.863 47.8426 120.016 47.2317ZM91.8178 12.5628C93.6202 9.90279 97.2371 9.20936 99.8972 11.0117C106.69 15.6144 112.535 21.4795 117.113 28.2894C118.905 30.9555 118.199 34.57 115.533 36.3629C112.867 38.1554 109.246 37.4444 107.454 34.7777C103.709 29.2072 98.926 24.4072 93.3689 20.642C90.7104 18.8392 90.0158 15.2222 91.8178 12.5628ZM28.2959 10.8867C30.9627 9.09447 34.5772 9.80527 36.3697 12.4719C38.1613 15.138 37.4555 18.7527 34.7901 20.5454C29.218 24.2907 24.4144 29.072 20.6483 34.63C18.8457 37.2894 15.2287 37.9833 12.5689 36.1811C9.90955 34.3785 9.21553 30.7616 11.0177 28.1019C15.6206 21.3093 21.486 15.464 28.2959 10.8867ZM51.841 1.16556C59.8724 -0.388635 68.1275 -0.388405 76.1589 1.16556C79.3135 1.77603 81.3771 4.82896 80.7668 7.98344C80.1563 11.1381 77.1034 13.2017 73.9487 12.5912C67.3773 11.3196 60.6226 11.3195 54.0512 12.5912C50.8968 13.2012 47.8436 11.1378 47.2332 7.98344C46.6231 4.82908 48.6866 1.77601 51.841 1.16556Z" fill="#4F46E5"/>
<path d="M64.056 87.2703C67.2693 87.2703 69.8741 89.8751 69.8741 93.0882C69.8728 96.3003 67.2685 98.9062 64.056 98.9062H63.9992C60.7867 98.9062 58.1824 96.3003 58.1811 93.0882C58.1811 89.8751 60.7859 87.2703 63.9992 87.2703H64.056ZM51.7437 32.2727C56.4811 29.489 62.0493 28.4694 67.4651 29.3978C72.8811 30.3268 77.7949 33.143 81.3342 37.3464C84.8723 41.5492 86.8124 46.8692 86.8057 52.3628L86.7318 53.9934C85.9899 61.9907 79.9083 67.3468 75.4877 70.2938C72.9541 71.9827 70.4604 73.2218 68.6241 74.0379C67.6976 74.4497 66.9136 74.7612 66.3514 74.9754C66.0705 75.0824 65.8412 75.1664 65.6753 75.2254C65.5931 75.2546 65.5273 75.2817 65.4764 75.2992C65.4517 75.3078 65.4309 75.3162 65.4139 75.322C65.4063 75.3246 65.3972 75.3256 65.3912 75.3277L65.3799 75.3333H65.3742C62.3258 76.3494 59.0268 74.6999 58.0106 71.6517C56.9977 68.6077 58.6404 65.3139 61.681 64.294V64.2997L61.6924 64.294C61.7078 64.2887 61.7368 64.2802 61.7776 64.2656C61.8667 64.234 62.015 64.1806 62.2094 64.1066C62.6017 63.9571 63.1874 63.7231 63.8969 63.4077C65.3328 62.7696 67.2044 61.8315 69.0332 60.6124C73.0442 57.9385 75.1683 55.0914 75.1695 52.3628V52.3514C75.1735 49.6038 74.2059 46.9424 72.4366 44.8404C70.6669 42.7381 68.2076 41.3278 65.4992 40.8633C62.7911 40.3991 60.0044 40.9086 57.6356 42.3007C55.2672 43.6927 53.4683 45.8796 52.5562 48.4709C51.4899 51.502 48.167 53.0995 45.1358 52.0332C42.1052 50.967 40.5136 47.6438 41.579 44.6131C43.4028 39.4287 47.0054 35.0574 51.7437 32.2727Z" fill="#4F46E5"/>
</g>
<defs>
<clipPath id="clip0_12_113">
<rect width="128" height="128" fill="white"/>
</clipPath>
</defs>
</svg>
