<svg width="728" height="128" viewBox="0 0 728 128" fill="none" xmlns="http://www.w3.org/2000/svg">
<g clip-path="url(#clip0_12_107)">
<path d="M6.02348 96.0564C7.01421 93.0011 10.2913 91.3287 13.3473 92.3178C16.4038 93.3076 18.0805 96.585 17.0915 99.6415L11.6768 116.352L28.4095 111.46C31.4921 110.559 34.7225 112.327 35.6254 115.408C36.5272 118.492 34.7593 121.727 31.6765 122.63L14.7677 127.573C14.7213 127.587 14.6724 127.6 14.6256 127.613C12.7096 128.122 10.6949 128.135 8.77345 127.647C6.85139 127.158 5.08365 126.186 3.64283 124.823C2.20194 123.46 1.13558 121.749 0.540604 119.857C-0.054331 117.965 -0.156463 115.953 0.245154 114.011L0.404242 113.397L6.02348 96.0564ZM73.9487 115.408C77.103 114.798 80.1556 116.862 80.7668 120.016C81.3773 123.171 79.3136 126.224 76.1589 126.834C68.1274 128.388 59.8726 128.389 51.841 126.834C48.6864 126.224 46.6226 123.171 47.2332 120.016C47.8441 116.863 50.8973 114.799 54.0512 115.408C60.6227 116.68 67.3772 116.68 73.9487 115.408ZM107.357 93.3746C109.16 90.7159 112.777 90.0224 115.437 91.8235C118.096 93.6255 118.794 97.243 116.994 99.9029C112.391 106.696 106.52 112.541 99.7097 117.119C97.0433 118.91 93.4286 118.205 91.636 115.539C89.8436 112.872 90.5549 109.258 93.2212 107.465C98.7933 103.72 103.591 98.9327 107.357 93.3746ZM1.1656 51.841C1.77607 48.6866 4.82923 46.6231 7.98369 47.2332C11.1381 47.8436 13.2016 50.8968 12.5916 54.0512C11.3199 60.6226 11.32 67.3773 12.5916 73.9487C13.2021 77.1034 11.1384 80.1563 7.98369 80.7668C4.8291 81.3771 1.77609 79.3135 1.1656 76.1589C-0.388417 68.1275 -0.388647 59.8724 1.1656 51.841ZM120.016 47.2332C123.171 46.6226 126.224 48.6864 126.834 51.841C128.389 59.8726 128.388 68.1274 126.834 76.1589C126.224 79.3136 123.171 81.3773 120.016 80.7668C116.862 80.1556 114.798 77.103 115.408 73.9487C116.68 67.3772 116.68 60.6227 115.408 54.0512C114.799 50.8973 116.863 47.8441 120.016 47.2332ZM91.8178 12.5632C93.6202 9.90309 97.2371 9.20964 99.8972 11.0121C106.69 15.6149 112.535 21.4801 117.113 28.2902C118.905 30.9564 118.199 34.571 115.533 36.364C112.867 38.1565 109.246 37.4456 107.454 34.7788C103.709 29.208 98.926 24.408 93.3689 20.6426C90.7104 18.8397 90.0158 15.2226 91.8178 12.5632ZM28.2959 10.8871C30.9627 9.09475 34.5772 9.80556 36.3697 12.4723C38.1613 15.1385 37.4555 18.7533 34.7901 20.546C29.218 24.2914 24.4144 29.0729 20.6483 34.6311C18.8457 37.2906 15.2287 37.9844 12.5689 36.1822C9.90955 34.3795 9.21553 30.7625 11.0177 28.1027C15.6206 21.31 21.486 15.4645 28.2959 10.8871ZM51.841 1.1656C59.8724 -0.388647 68.1275 -0.388417 76.1589 1.1656C79.3135 1.77609 81.3771 4.8291 80.7668 7.98369C80.1563 11.1384 77.1034 13.2021 73.9487 12.5916C67.3773 11.32 60.6226 11.3199 54.0512 12.5916C50.8968 13.2016 47.8436 11.1381 47.2332 7.98369C46.6231 4.82923 48.6866 1.77607 51.841 1.1656Z" fill="#6366F1"/>
<path d="M64.056 87.273C67.2692 87.273 69.8741 89.8778 69.8741 93.0911C69.8728 96.3032 67.2684 98.9092 64.056 98.9092H63.9992C60.7867 98.9092 58.1823 96.3032 58.1811 93.0911C58.1811 89.8778 60.7859 87.273 63.9992 87.273H64.056ZM51.7436 32.2737C56.4811 29.4899 62.0492 28.4703 67.465 29.3987C72.8811 30.3277 77.7948 33.144 81.3342 37.3475C84.8722 41.5505 86.8124 46.8706 86.8057 52.3643L86.7318 53.995C85.9899 61.9926 79.9083 67.3488 75.4876 70.2959C72.9541 71.9849 70.4603 73.224 68.6241 74.0402C67.6975 74.452 66.9136 74.7635 66.3514 74.9777C66.0704 75.0847 65.8412 75.1687 65.6753 75.2277C65.593 75.2569 65.5273 75.284 65.4764 75.3015C65.4516 75.3101 65.4309 75.3185 65.4139 75.3243C65.4063 75.3268 65.3972 75.3279 65.3912 75.3299L65.3798 75.3356H65.3741C62.3258 76.3517 59.0267 74.7022 58.0106 71.6539C56.9976 68.6098 58.6403 65.3159 61.681 64.296V64.3017L61.6924 64.296C61.7078 64.2907 61.7367 64.2821 61.7776 64.2676C61.8667 64.2359 62.015 64.1825 62.2094 64.1085C62.6016 63.9591 63.1873 63.725 63.8969 63.4096C65.3328 62.7715 67.2044 61.8333 69.0332 60.6142C73.0442 57.9402 75.1682 55.0931 75.1695 52.3643V52.353C75.1735 49.6053 74.2059 46.9438 72.4366 44.8417C70.6668 42.7394 68.2076 41.3291 65.4991 40.8645C62.7911 40.4003 60.0044 40.9098 57.6356 42.302C55.2671 43.694 53.4683 45.881 52.5561 48.4723C51.4898 51.5035 48.167 53.1011 45.1358 52.0348C42.1051 50.9686 40.5136 47.6452 41.579 44.6144C43.4028 39.4299 47.0054 35.0584 51.7436 32.2737Z" fill="#6366F1"/>
<path d="M177.043 104V24.866H191.079V56.689H223.144V24.866H237.18V104H223.144V68.91H191.079V104H177.043Z" fill="#6366F1"/>
<path d="M280.387 105.452C275.467 105.452 270.869 104.242 266.593 101.822C262.318 99.3213 258.849 95.772 256.187 91.174C253.525 86.4953 252.194 80.889 252.194 74.355C252.194 67.7403 253.525 62.134 256.187 57.536C258.849 52.8573 262.318 49.308 266.593 46.888C270.869 44.3873 275.467 43.137 280.387 43.137C285.389 43.137 290.027 44.3873 294.302 46.888C298.578 49.308 302.046 52.8573 304.708 57.536C307.37 62.134 308.701 67.7403 308.701 74.355C308.701 80.889 307.37 86.4953 304.708 91.174C302.046 95.772 298.578 99.3213 294.302 101.822C290.027 104.242 285.389 105.452 280.387 105.452ZM280.387 94.078C284.743 94.078 288.172 92.263 290.672 88.633C293.173 85.003 294.423 80.2437 294.423 74.355C294.423 68.3857 293.173 63.586 290.672 59.956C288.172 56.326 284.743 54.511 280.387 54.511C276.031 54.511 272.603 56.326 270.102 59.956C267.682 63.586 266.472 68.3857 266.472 74.355C266.472 80.2437 267.682 85.003 270.102 88.633C272.603 92.263 276.031 94.078 280.387 94.078Z" fill="#6366F1"/>
<path d="M331.567 104L315.837 44.589H329.873L337.012 75.444C337.657 78.2673 338.181 81.0907 338.585 83.914C339.069 86.7373 339.593 89.601 340.158 92.505H340.642C341.206 89.601 341.771 86.7373 342.336 83.914C342.981 81.01 343.667 78.1867 344.393 75.444L352.137 44.589H364.842L372.707 75.444C373.433 78.2673 374.118 81.0907 374.764 83.914C375.409 86.7373 376.054 89.601 376.7 92.505H377.184C377.748 89.601 378.273 86.7373 378.757 83.914C379.241 81.0907 379.765 78.2673 380.33 75.444L387.469 44.589H400.537L385.412 104H368.835L361.938 76.291C361.292 73.4677 360.687 70.6847 360.123 67.942C359.558 65.1187 358.953 62.134 358.308 58.988H357.824C357.259 62.134 356.694 65.1187 356.13 67.942C355.565 70.7653 354.96 73.5887 354.315 76.412L347.539 104H331.567Z" fill="#6366F1"/>
<path d="M428.856 105.452C424.823 105.452 420.79 104.686 416.756 103.153C412.723 101.54 409.254 99.5633 406.35 97.224L412.884 88.27C415.546 90.2867 418.208 91.9 420.87 93.11C423.532 94.32 426.356 94.925 429.34 94.925C432.567 94.925 434.947 94.2393 436.479 92.868C438.012 91.4967 438.778 89.8027 438.778 87.786C438.778 86.092 438.133 84.7207 436.842 83.672C435.632 82.5427 434.059 81.5747 432.123 80.768C430.187 79.8807 428.171 79.0337 426.073 78.227C423.492 77.259 420.911 76.0893 418.329 74.718C415.829 73.266 413.772 71.451 412.158 69.273C410.545 67.0143 409.738 64.2313 409.738 60.924C409.738 55.6807 411.674 51.4053 415.546 48.098C419.418 44.7907 424.662 43.137 431.276 43.137C435.471 43.137 439.222 43.863 442.529 45.315C445.837 46.767 448.7 48.4207 451.12 50.276L444.707 58.746C442.61 57.2133 440.472 56.0033 438.294 55.116C436.197 54.148 433.979 53.664 431.639 53.664C428.655 53.664 426.436 54.3093 424.984 55.6C423.532 56.81 422.806 58.3427 422.806 60.198C422.806 62.5373 424.016 64.312 426.436 65.522C428.856 66.732 431.68 67.9017 434.906 69.031C437.649 69.999 440.311 71.209 442.892 72.661C445.474 74.0323 447.611 75.8473 449.305 78.106C451.08 80.3647 451.967 83.3493 451.967 87.06C451.967 92.142 449.991 96.498 446.038 100.128C442.086 103.677 436.358 105.452 428.856 105.452Z" fill="#6366F1"/>
<path d="M473.465 104L457.735 24.866H472.134L479.031 64.796C479.676 68.9907 480.321 73.2257 480.967 77.501C481.693 81.6957 482.338 85.8903 482.903 90.085H483.387C484.274 85.8903 485.121 81.6957 485.928 77.501C486.815 73.2257 487.702 68.9907 488.59 64.796L498.27 24.866H510.491L520.171 64.796C521.058 68.91 521.945 73.1047 522.833 77.38C523.72 81.5747 524.607 85.8097 525.495 90.085H525.979C526.624 85.8097 527.269 81.5747 527.915 77.38C528.56 73.1853 529.165 68.9907 529.73 64.796L536.627 24.866H550.058L534.933 104H517.509L507.708 62.376C507.062 59.3107 506.417 56.2453 505.772 53.18C505.207 50.1147 504.683 47.0897 504.199 44.105H503.715C503.15 47.0897 502.545 50.1147 501.9 53.18C501.335 56.2453 500.73 59.3107 500.085 62.376L490.526 104H473.465Z" fill="#6366F1"/>
<path d="M585.487 105.452C580.566 105.452 575.968 104.242 571.693 101.822C567.418 99.3213 563.949 95.772 561.287 91.174C558.625 86.4953 557.294 80.889 557.294 74.355C557.294 67.7403 558.625 62.134 561.287 57.536C563.949 52.8573 567.418 49.308 571.693 46.888C575.968 44.3873 580.566 43.137 585.487 43.137C590.488 43.137 595.127 44.3873 599.402 46.888C603.677 49.308 607.146 52.8573 609.808 57.536C612.47 62.134 613.801 67.7403 613.801 74.355C613.801 80.889 612.47 86.4953 609.808 91.174C607.146 95.772 603.677 99.3213 599.402 101.822C595.127 104.242 590.488 105.452 585.487 105.452ZM585.487 94.078C589.843 94.078 593.271 92.263 595.772 88.633C598.273 85.003 599.523 80.2437 599.523 74.355C599.523 68.3857 598.273 63.586 595.772 59.956C593.271 56.326 589.843 54.511 585.487 54.511C581.131 54.511 577.703 56.326 575.202 59.956C572.782 63.586 571.572 68.3857 571.572 74.355C571.572 80.2437 572.782 85.003 575.202 88.633C577.703 92.263 581.131 94.078 585.487 94.078Z" fill="#6366F1"/>
<path d="M627.574 104V44.589H639.069L640.037 55.116H640.521C642.619 51.244 645.16 48.2997 648.144 46.283C651.129 44.1857 654.194 43.137 657.34 43.137C660.164 43.137 662.422 43.5403 664.116 44.347L661.696 56.447C660.648 56.1243 659.68 55.8823 658.792 55.721C657.905 55.5597 656.816 55.479 655.525 55.479C653.186 55.479 650.726 56.4067 648.144 58.262C645.563 60.0367 643.345 63.1827 641.489 67.7V104H627.574Z" fill="#6366F1"/>
<path d="M672.713 104V18.574H686.386V71.935H686.749L708.771 44.589H724.017L703.689 68.789L726.074 104H710.949L695.703 78.227L686.386 88.875V104H672.713Z" fill="#6366F1"/>
</g>
<defs>
<clipPath id="clip0_12_107">
<rect width="728" height="128" fill="white"/>
</clipPath>
</defs>
</svg>
